<svg width="22" height="21" viewBox="0 0 22 21" fill="none" xmlns="http://www.w3.org/2000/svg">
<path d="M10.063 0.772073C10.3743 -0.123487 11.6408 -0.123485 11.9521 0.772075L13.9402 6.4917C14.0776 6.88677 14.4463 7.15464 14.8644 7.16316L20.9185 7.28654C21.8664 7.30585 22.2578 8.5104 21.5023 9.0832L16.6769 12.7415C16.3436 12.9942 16.2028 13.4276 16.3239 13.8279L18.0774 19.6238C18.352 20.5313 17.3273 21.2758 16.5491 20.7342L11.5787 17.2755C11.2354 17.0366 10.7797 17.0366 10.4364 17.2755L5.46601 20.7342C4.68776 21.2758 3.66312 20.5313 3.93767 19.6238L5.69114 13.8279C5.81226 13.4276 5.67143 12.9942 5.33814 12.7415L0.512816 9.0832C-0.242716 8.5104 0.148666 7.30585 1.09659 7.28654L7.15065 7.16316C7.56882 7.15464 7.93751 6.88677 8.07483 6.4917L10.063 0.772073Z" fill="#FFCC00"/>
</svg>
