<svg width="23" height="21" viewBox="0 0 23 21" fill="none" xmlns="http://www.w3.org/2000/svg">
<path d="M10.3913 0.772073C10.7026 -0.123487 11.9691 -0.123485 12.2804 0.772075L14.2685 6.4917C14.4059 6.88677 14.7746 7.15464 15.1927 7.16316L21.2468 7.28654C22.1947 7.30585 22.5861 8.5104 21.8306 9.0832L17.0052 12.7415C16.672 12.9942 16.5311 13.4276 16.6522 13.8279L18.4057 19.6238C18.6803 20.5313 17.6556 21.2758 16.8774 20.7342L11.907 17.2755C11.5637 17.0366 11.108 17.0366 10.7647 17.2755L5.79431 20.7342C5.01607 21.2758 3.99143 20.5313 4.26598 19.6238L6.01945 13.8279C6.14057 13.4276 5.99974 12.9942 5.66644 12.7415L0.841125 9.0832C0.0855923 8.5104 0.476974 7.30585 1.4249 7.28654L7.47895 7.16316C7.89713 7.15464 8.26582 6.88677 8.40314 6.4917L10.3913 0.772073Z" fill="#FFCC00"/>
</svg>
