<svg width="22" height="21" viewBox="0 0 22 21" fill="none" xmlns="http://www.w3.org/2000/svg">
<path d="M10.1724 0.772073C10.4837 -0.123487 11.7502 -0.123485 12.0615 0.772075L14.0497 6.4917C14.187 6.88677 14.5557 7.15464 14.9739 7.16316L21.0279 7.28654C21.9758 7.30585 22.3672 8.5104 21.6117 9.0832L16.7864 12.7415C16.4531 12.9942 16.3123 13.4276 16.4334 13.8279L18.1868 19.6238C18.4614 20.5313 17.4367 21.2758 16.6585 20.7342L11.6882 17.2755C11.3448 17.0366 10.8891 17.0366 10.5458 17.2755L5.57544 20.7342C4.7972 21.2758 3.77256 20.5313 4.04711 19.6238L5.80058 13.8279C5.9217 13.4276 5.78087 12.9942 5.44757 12.7415L0.622252 9.0832C-0.13328 8.5104 0.258102 7.30585 1.20603 7.28654L7.26008 7.16316C7.67825 7.15464 8.04694 6.88677 8.18427 6.4917L10.1724 0.772073Z" fill="#FFCC00"/>
</svg>
