<svg width="23" height="21" viewBox="0 0 23 21" fill="none" xmlns="http://www.w3.org/2000/svg">
<path d="M10.5007 0.772073C10.812 -0.123487 12.0785 -0.123485 12.3898 0.772075L14.378 6.4917C14.5153 6.88677 14.884 7.15464 15.3022 7.16316L21.3562 7.28654C22.3042 7.30585 22.6955 8.5104 21.94 9.0832L17.1147 12.7415C16.7814 12.9942 16.6406 13.4276 16.7617 13.8279L18.5151 19.6238C18.7897 20.5313 17.7651 21.2758 16.9868 20.7342L12.0165 17.2755C11.6731 17.0366 11.2174 17.0366 10.8741 17.2755L5.90375 20.7342C5.12551 21.2758 4.10086 20.5313 4.37542 19.6238L6.12889 13.8279C6.25001 13.4276 6.10918 12.9942 5.77588 12.7415L0.950561 9.0832C0.195028 8.5104 0.58641 7.30585 1.53433 7.28654L7.58839 7.16316C8.00656 7.15464 8.37525 6.88677 8.51258 6.4917L10.5007 0.772073Z" fill="#FFCC00"/>
</svg>
