<svg width="23" height="21" viewBox="0 0 23 21" fill="none" xmlns="http://www.w3.org/2000/svg">
<path d="M10.2818 0.772073C10.5931 -0.123487 11.8597 -0.123485 12.171 0.772075L14.1591 6.4917C14.2964 6.88677 14.6651 7.15464 15.0833 7.16316L21.1374 7.28654C22.0853 7.30585 22.4767 8.5104 21.7211 9.0832L16.8958 12.7415C16.5625 12.9942 16.4217 13.4276 16.5428 13.8279L18.2963 19.6238C18.5708 20.5313 17.5462 21.2758 16.7679 20.7342L11.7976 17.2755C11.4543 17.0366 10.9985 17.0366 10.6552 17.2755L5.68488 20.7342C4.90664 21.2758 3.88199 20.5313 4.15654 19.6238L5.91002 13.8279C6.03113 13.4276 5.89031 12.9942 5.55701 12.7415L0.731688 9.0832C-0.0238438 8.5104 0.367538 7.30585 1.31546 7.28654L7.36952 7.16316C7.78769 7.15464 8.15638 6.88677 8.29371 6.4917L10.2818 0.772073Z" fill="#FFCC00"/>
</svg>
