<svg width="16" height="18" viewBox="0 0 16 18" fill="none" xmlns="http://www.w3.org/2000/svg">
<path d="M15.1834 6.04158C14.3084 2.19159 10.95 0.458252 8.00002 0.458252C8.00002 0.458252 8.00002 0.458252 7.99168 0.458252C5.05002 0.458252 1.68335 2.18325 0.808352 6.03325C-0.166648 10.3333 2.46669 13.9749 4.85002 16.2666C5.73335 17.1166 6.86668 17.5416 8.00002 17.5416C9.13335 17.5416 10.2667 17.1166 11.1417 16.2666C13.525 13.9749 16.1584 10.3416 15.1834 6.04158ZM8.00002 10.2166C6.55002 10.2166 5.37502 9.04158 5.37502 7.59159C5.37502 6.14158 6.55002 4.96658 8.00002 4.96658C9.45002 4.96658 10.625 6.14158 10.625 7.59159C10.625 9.04158 9.45002 10.2166 8.00002 10.2166Z" fill="#45403D"/>
</svg>
